<svg xmlns="http://www.w3.org/2000/svg" width="103" height="103" viewBox="0 0 103 103"><defs><style>.a{fill:#f00023;}</style></defs><path class="a" d="M36.188,80.22,55.5,60.907,74.812,80.22l5.408-5.408L60.907,55.5,80.22,36.187,74.812,30.78,55.5,50.092,36.187,30.78,30.78,36.187,50.092,55.5,30.78,74.812ZM55.5,107a49.831,49.831,0,0,1-19.956-4.056A51.887,51.887,0,0,1,8.056,75.456,49.831,49.831,0,0,1,4,55.5,50.148,50.148,0,0,1,8.056,35.415,51.468,51.468,0,0,1,19.128,19.064,52.792,52.792,0,0,1,35.544,8.056,49.831,49.831,0,0,1,55.5,4,50.148,50.148,0,0,1,75.585,8.056a51.42,51.42,0,0,1,27.359,27.359A50.148,50.148,0,0,1,107,55.5a49.831,49.831,0,0,1-4.056,19.956A52.793,52.793,0,0,1,91.936,91.872a51.468,51.468,0,0,1-16.351,11.073A50.148,50.148,0,0,1,55.5,107Zm0-7.725A42.123,42.123,0,0,0,86.529,86.464,42.292,42.292,0,0,0,99.275,55.5,42.231,42.231,0,0,0,86.529,24.471,42.231,42.231,0,0,0,55.5,11.725,42.292,42.292,0,0,0,24.536,24.471,42.123,42.123,0,0,0,11.725,55.5,42.185,42.185,0,0,0,24.536,86.464,42.185,42.185,0,0,0,55.5,99.275ZM55.5,55.5Z" transform="translate(-4 -4)"/></svg>