<svg xmlns="http://www.w3.org/2000/svg" width="39" height="39" viewBox="0 0 39 39"><defs><style>.a{fill:#fff;}</style></defs><g transform="translate(0 0)"><path class="a" d="M15.031,13H2.844A2.847,2.847,0,0,1,0,10.156V2.844A2.847,2.847,0,0,1,2.844,0H15.031a2.847,2.847,0,0,1,2.844,2.844v7.312A2.847,2.847,0,0,1,15.031,13ZM2.844,2.438a.406.406,0,0,0-.406.406v7.312a.407.407,0,0,0,.406.406H15.031a.407.407,0,0,0,.406-.406V2.844a.407.407,0,0,0-.406-.406Zm0,0" transform="translate(0 0)"/><path class="a" d="M15.031,236.082H2.844A2.847,2.847,0,0,1,0,233.238V216.176a2.847,2.847,0,0,1,2.844-2.844H15.031a2.847,2.847,0,0,1,2.844,2.844v17.062A2.847,2.847,0,0,1,15.031,236.082ZM2.844,215.77a.407.407,0,0,0-.406.406v17.062a.406.406,0,0,0,.406.406H15.031a.407.407,0,0,0,.406-.406V216.176a.407.407,0,0,0-.406-.406Zm0,0" transform="translate(0 -197.082)"/><path class="a" d="M292.363,354.332H280.176a2.847,2.847,0,0,1-2.844-2.844v-7.312a2.847,2.847,0,0,1,2.844-2.844h12.187a2.847,2.847,0,0,1,2.844,2.844v7.312A2.847,2.847,0,0,1,292.363,354.332ZM280.176,343.77a.407.407,0,0,0-.406.406v7.312a.407.407,0,0,0,.406.406h12.187a.406.406,0,0,0,.406-.406v-7.312a.407.407,0,0,0-.406-.406Zm0,0" transform="translate(-256.207 -315.332)"/><path class="a" d="M292.363,22.75H280.176a2.847,2.847,0,0,1-2.844-2.844V2.844A2.847,2.847,0,0,1,280.176,0h12.187a2.847,2.847,0,0,1,2.844,2.844V19.906A2.847,2.847,0,0,1,292.363,22.75ZM280.176,2.438a.407.407,0,0,0-.406.406V19.906a.407.407,0,0,0,.406.406h12.187a.407.407,0,0,0,.406-.406V2.844a.406.406,0,0,0-.406-.406Zm0,0" transform="translate(-256.207 0)"/></g></svg>