<svg xmlns="http://www.w3.org/2000/svg" width="32.773" height="32.779" viewBox="0 0 32.773 32.779"><defs><style>.a{fill:#fff;}</style></defs><g transform="translate(13 -1)"><g transform="translate(-13 1)"><path class="a" d="M1906.11-736.023c.353-.331.716-.651,1.055-.995a.726.726,0,0,1,1.026-.134c1.345.9,2.7,1.785,4.022,2.726a1.887,1.887,0,0,1,.674.969,9.966,9.966,0,0,0,3.149,4.842c1.391,1.258,2.668,2.642,4,3.969.148.147.3.286.544.51.489-.527.939-1.04,1.42-1.522.6-.6.952-.575,1.577-.02a8.987,8.987,0,0,1,2.1,3.1,4.579,4.579,0,0,0,1.928,2.151,30.794,30.794,0,0,1,7.065,5.851c1.378,1.454,2.807,2.86,4.214,4.287v.64a1.679,1.679,0,0,0-.193.143q-2.529,2.488-5.056,4.978h-.512c-1.911-1.908-3.774-3.865-5.745-5.709a27.987,27.987,0,0,1-4.406-5.69,4.672,4.672,0,0,0-2.015-1.8,9.6,9.6,0,0,1-3.207-2.165c-.531-.59-.548-.962.013-1.531.49-.5.994-.98,1.521-1.5-.21-.22-.365-.39-.528-.552-1.628-1.628-3.283-3.229-4.874-4.892a5.838,5.838,0,0,0-2.815-1.776,4.326,4.326,0,0,1-2.818-2.2c-.635-1.1-1.419-2.118-2.138-3.171Z" transform="translate(-1906.11 737.31)"/><path class="a" d="M2072.126-730.666c-.133.816-.229,1.64-.406,2.446a6.894,6.894,0,0,1-6.4,5.654,14.108,14.108,0,0,1-2.447-.32.924.924,0,0,0-.65.145c-.459.409-.866.876-1.419,1.449a12.4,12.4,0,0,1-1.027-1.434,11.49,11.49,0,0,0-2.377-3.527l-.626-.558c.024-.05.036-.125.078-.156a1.6,1.6,0,0,0,.59-1.947,6.766,6.766,0,0,1,4.7-7.883,12.331,12.331,0,0,1,4.225-.516,1.961,1.961,0,0,1,.508.174,1.862,1.862,0,0,1-.252.542c-.784.814-1.578,1.619-2.391,2.4a3.433,3.433,0,0,0-.926,3.636,2.632,2.632,0,0,0,1.989,1.966,3.457,3.457,0,0,0,3.628-.937c.774-.822,1.6-1.6,2.389-2.405.342-.349.6-.343.815.116Z" transform="translate(-2039.353 737.329)"/><path class="a" d="M1906.11-576.952a6.9,6.9,0,0,1,1.889-2.588q4.065-4.032,8.1-8.1a5.931,5.931,0,0,0,.471-.63,10.458,10.458,0,0,0,4.187,3.171,10.255,10.255,0,0,1,1.371.978c-.238.253-.378.409-.526.557-3.136,3.137-6.33,6.218-9.389,9.428a3.454,3.454,0,0,1-6.015-1.316c-.008-.035-.055-.061-.084-.092Zm3.572-.678a1.2,1.2,0,0,0-1.226,1.2,1.235,1.235,0,0,0,1.219,1.224,1.194,1.194,0,0,0,1.209-1.216A1.168,1.168,0,0,0,1909.682-577.631Z" transform="translate(-1906.11 605.507)"/></g></g></svg>