<svg xmlns="http://www.w3.org/2000/svg" width="27.151" height="24.877" viewBox="0 0 27.151 24.877"><defs><style>.a{fill:#f87547;}</style></defs><path class="a" d="M17.576,30.177l-1.392-1.256q-3.6-3.292-5.939-5.685a42,42,0,0,1-3.733-4.276A14.123,14.123,0,0,1,4.56,15.55,8.912,8.912,0,0,1,4,12.461,7.015,7.015,0,0,1,11.127,5.3a7.24,7.24,0,0,1,3.581.916,8.7,8.7,0,0,1,2.868,2.647,9.9,9.9,0,0,1,3.021-2.7A7.077,7.077,0,0,1,24.024,5.3a7.015,7.015,0,0,1,7.127,7.161,8.912,8.912,0,0,1-.56,3.088,14.123,14.123,0,0,1-1.952,3.411,42,42,0,0,1-3.733,4.276q-2.342,2.393-5.939,5.685Zm0-2.681Q21,24.34,23.227,22.083a44.827,44.827,0,0,0,3.53-3.954,13.1,13.1,0,0,0,1.833-3.021,7.121,7.121,0,0,0,.526-2.647A5.019,5.019,0,0,0,27.69,8.779a4.93,4.93,0,0,0-3.665-1.442A5.43,5.43,0,0,0,20.8,8.405a7.589,7.589,0,0,0-2.41,3H16.727a7.507,7.507,0,0,0-2.376-2.987,5.374,5.374,0,0,0-3.224-1.086A4.93,4.93,0,0,0,7.462,8.779a5.019,5.019,0,0,0-1.425,3.682,7.251,7.251,0,0,0,.526,2.664A13.217,13.217,0,0,0,8.4,18.18a40.733,40.733,0,0,0,3.547,3.954Q14.182,24.374,17.576,27.5ZM17.576,17.416Z" transform="translate(-4 -5.3)"/></svg>