<svg xmlns="http://www.w3.org/2000/svg" xmlns:xlink="http://www.w3.org/1999/xlink" width="22" height="22" viewBox="0 0 22 22"><defs><style>.a{fill:none;}.b{fill-rule:evenodd;fill:url(#a);}.c{fill:red;}</style><linearGradient id="a" x1="0.5" x2="0.5" y2="1" gradientUnits="objectBoundingBox"><stop offset="0" stop-color="#77aba5"/><stop offset="1" stop-color="#314d4d"/></linearGradient></defs><g transform="translate(-326 -51)"><g transform="translate(326 51)"><rect class="a" width="22" height="22"/><path class="b" d="M20.6,19.25H13.727a2.75,2.75,0,0,1-5.5,0H1.352a1.321,1.321,0,0,1-1.237-.962,1.468,1.468,0,0,1,.412-1.513,5.536,5.536,0,0,0,2.2-4.4V8.25a8.25,8.25,0,0,1,16.5,0v4.125a5.536,5.536,0,0,0,2.2,4.4,1.3,1.3,0,0,1,.413,1.513A1.321,1.321,0,0,1,20.6,19.25Z" transform="translate(-0.062)"/></g><circle class="c" cx="3" cy="3" r="3" transform="translate(340 51)"/></g></svg>