<svg xmlns="http://www.w3.org/2000/svg" width="35.415" height="35.415" viewBox="0 0 35.415 35.415"><defs><style>.a{fill:#353046;}</style></defs><path class="a" d="M21.884,32.022a1.663,1.663,0,1,0-1.2-.487A1.625,1.625,0,0,0,21.884,32.022Zm-1.549-6.463h2.612a7.245,7.245,0,0,1,.288-2.1,5.212,5.212,0,0,1,1.793-2.191,7.746,7.746,0,0,0,1.948-2.258,5.2,5.2,0,0,0,.575-2.435,4.888,4.888,0,0,0-1.527-3.763,5.719,5.719,0,0,0-4.051-1.417,6.843,6.843,0,0,0-3.829,1.085,6.194,6.194,0,0,0-2.413,2.988l2.346.885a4.131,4.131,0,0,1,1.461-1.926,3.894,3.894,0,0,1,2.3-.686,3.548,3.548,0,0,1,2.435.819,2.675,2.675,0,0,1,.93,2.1,3.255,3.255,0,0,1-.575,1.837,8.819,8.819,0,0,1-1.682,1.793,9,9,0,0,0-1.97,2.28,6.026,6.026,0,0,0-.642,2.988Zm1.372,13.856a17.134,17.134,0,0,1-6.862-1.394,17.84,17.84,0,0,1-9.451-9.451,17.688,17.688,0,0,1,0-13.768A17.7,17.7,0,0,1,9.2,9.179a18.152,18.152,0,0,1,5.644-3.785,17.688,17.688,0,0,1,13.768,0A17.68,17.68,0,0,1,38.02,14.8a17.688,17.688,0,0,1,0,13.768,18.152,18.152,0,0,1-3.785,5.644,17.7,17.7,0,0,1-5.622,3.807A17.243,17.243,0,0,1,21.707,39.415Zm0-2.656a14.483,14.483,0,0,0,10.669-4.4,14.542,14.542,0,0,0,4.383-10.647,14.52,14.52,0,0,0-4.383-10.669A14.52,14.52,0,0,0,21.707,6.656a14.542,14.542,0,0,0-10.647,4.383,14.483,14.483,0,0,0-4.4,10.669,14.5,14.5,0,0,0,4.4,10.647A14.5,14.5,0,0,0,21.707,36.759ZM21.707,21.707Z" transform="translate(-4 -4)"/></svg>