<svg xmlns="http://www.w3.org/2000/svg" width="29.227" height="29.223" viewBox="0 0 29.227 29.223"><defs><style>.a{fill:#f00023;}</style></defs><g transform="translate(0)"><path class="a" d="M747.107,1406.481a14.614,14.614,0,1,1-14.753-14.6A14.621,14.621,0,0,1,747.107,1406.481Zm-17.763.031c-.17.149-.32.266-.453.4-1.09,1.086-2.183,2.171-3.264,3.268a1.568,1.568,0,0,0,0,2.183c.322.33.645.657.977.978a1.578,1.578,0,0,0,2.209-.009c.662-.655,1.32-1.316,1.978-1.977.56-.563,1.118-1.129,1.7-1.718.095.107.16.189.234.263q1.711,1.713,3.424,3.421a1.571,1.571,0,0,0,2.229,0c.337-.33.675-.658,1-1a1.572,1.572,0,0,0-.044-2.162c-.5-.506-1.007-1.008-1.511-1.51l-2.208-2.2a1.267,1.267,0,0,0,.219-.136q1.746-1.741,3.488-3.489a1.577,1.577,0,0,0,0-2.232c-.323-.328-.648-.656-.98-.976a1.573,1.573,0,0,0-2.162,0q-1.039,1.028-2.065,2.068c-.534.542-1.058,1.094-1.594,1.65-.1-.1-.148-.139-.192-.183q-1.768-1.764-3.536-3.529a1.575,1.575,0,0,0-2.184.006q-.491.485-.977.978a1.406,1.406,0,0,0-.395,1.413,1.99,1.99,0,0,0,.456.83C726.877,1404.067,728.086,1405.256,729.344,1406.513Z" transform="translate(-717.879 -1391.88)"/></g></svg>