<svg xmlns="http://www.w3.org/2000/svg" width="29.453" height="34.362" viewBox="0 0 29.453 34.362"><defs><style>.a{fill:#353046;}</style></defs><path class="a" d="M8.454,36.362a2.355,2.355,0,0,1-1.718-.736A2.355,2.355,0,0,1,6,33.908V12.227a2.355,2.355,0,0,1,.736-1.718,2.355,2.355,0,0,1,1.718-.736h4.5a7.675,7.675,0,0,1,2.168-5.5A7.161,7.161,0,0,1,20.522,2a7.836,7.836,0,0,1,5.6,2.27,7.334,7.334,0,0,1,2.373,5.5H33a2.517,2.517,0,0,1,2.454,2.454V33.908A2.517,2.517,0,0,1,33,36.362Zm0-2.454H33V12.227H8.454ZM20.727,22.044a7.663,7.663,0,0,0,5.6-2.373,7.663,7.663,0,0,0,2.373-5.6H26.249a5.309,5.309,0,0,1-1.636,3.886,5.433,5.433,0,0,1-7.772,0A5.309,5.309,0,0,1,15.2,14.068H12.75a7.663,7.663,0,0,0,2.373,5.6A7.663,7.663,0,0,0,20.727,22.044ZM15.409,9.772H26.044a5.24,5.24,0,0,0-5.318-5.318,5.239,5.239,0,0,0-5.318,5.318ZM8.454,33.908v0Z" transform="translate(-6 -2)"/></svg>