<svg xmlns="http://www.w3.org/2000/svg" width="366" height="78.589" viewBox="0 0 366 78.589"><defs><style>.a{fill:none;}.b,.c{stroke:none;}.c{fill:#f00023;}</style></defs><g class="a"><path class="b" d="M9.7,0H356.3c5.355,0,9.7,4.021,9.7,8.982V69.607c0,4.96-4.341,8.982-9.7,8.982H9.7c-5.355,0-9.7-4.021-9.7-8.982V8.982C0,4.021,4.341,0,9.7,0Z"/><path class="c" d="M 9.69537353515625 2.000022888183594 C 5.4521484375 2.000022888183594 1.999969482421875 5.131919860839844 1.999969482421875 8.981575012207031 L 1.999969482421875 69.60732269287109 C 1.999969482421875 73.45697021484375 5.4521484375 76.58892059326172 9.69537353515625 76.58892059326172 L 356.3046264648438 76.58892059326172 C 360.5478820800781 76.58892059326172 364 73.45697021484375 364 69.60732269287109 L 364 8.981575012207031 C 364 5.131919860839844 360.5478820800781 2.000022888183594 356.3046264648438 2.000022888183594 L 9.69537353515625 2.000022888183594 M 9.69537353515625 2.288818359375e-05 L 356.3046264648438 2.288818359375e-05 C 361.6591796875 2.288818359375e-05 366 4.021171569824219 366 8.981575012207031 L 366 69.60732269287109 C 366 74.56777191162109 361.6591796875 78.58892059326172 356.3046264648438 78.58892059326172 L 9.69537353515625 78.58892059326172 C 4.340728759765625 78.58892059326172 -3.0517578125e-05 74.56777191162109 -3.0517578125e-05 69.60732269287109 L -3.0517578125e-05 8.981575012207031 C -3.0517578125e-05 4.021171569824219 4.340728759765625 2.288818359375e-05 9.69537353515625 2.288818359375e-05 Z"/></g></svg>