<svg xmlns="http://www.w3.org/2000/svg" width="832.125" height="130.5" viewBox="0 0 832.125 130.5"><defs><style>.a{fill:#fff;}.b,.c{stroke:none;}.c{fill:#ec9e22;}</style></defs><g class="a"><path class="b" d="M 810.0823364257812 129.5004425048828 L 22.0430965423584 129.5004425048828 C 19.16031837463379 129.5004425048828 16.36609649658203 129.1191101074219 13.73798561096191 128.3669891357422 C 11.21487522125244 127.6448822021484 8.95343017578125 126.6143264770508 7.016652584075928 125.3038787841797 C 3.13676381111145 122.6787719726562 0.999985933303833 119.2275466918945 0.999985933303833 115.5861053466797 L 0.999985933303833 14.91432476043701 C 0.999985933303833 11.27288055419922 3.13676381111145 7.821658134460449 7.016652584075928 5.196547031402588 C 8.95343017578125 3.886102437973022 11.21487522125244 2.855546951293945 13.73798561096191 2.133435726165771 C 16.36609649658203 1.381324768066406 19.16031837463379 0.9999914169311523 22.0430965423584 0.9999914169311523 L 810.0823364257812 0.9999914169311523 C 812.9649658203125 0.9999914169311523 815.7592163085938 1.381324768066406 818.3873291015625 2.133435726165771 C 820.910400390625 2.855546951293945 823.171875 3.886102437973022 825.108642578125 5.196547031402588 C 828.988525390625 7.821658134460449 831.1253051757812 11.27288055419922 831.1253051757812 14.91432476043701 L 831.1253051757812 115.5861053466797 C 831.1253051757812 119.2275466918945 828.988525390625 122.6787719726562 825.108642578125 125.3038787841797 C 823.171875 126.6143264770508 820.910400390625 127.6448822021484 818.3873291015625 128.3669891357422 C 815.7592163085938 129.1191101074219 812.9649658203125 129.5004425048828 810.0823364257812 129.5004425048828 Z"/><path class="c" d="M 22.04296875 1.999984741210938 C 19.2532958984375 1.999984741210938 16.5517578125 2.368331909179688 14.01312255859375 3.094879150390625 C 11.5916748046875 3.787765502929688 9.42620849609375 4.773544311523438 7.57696533203125 6.024772644042969 C 3.98065185546875 8.458099365234375 2 11.61510467529297 2 14.91432189941406 L 2 115.5861053466797 C 2 118.8853225708008 3.98065185546875 122.0423278808594 7.57696533203125 124.4756546020508 C 9.42620849609375 125.7268829345703 11.5916748046875 126.7126617431641 14.01312255859375 127.4055480957031 C 16.5517578125 128.1320953369141 19.2532958984375 128.5004425048828 22.04296875 128.5004425048828 L 810.0823364257812 128.5004425048828 C 812.8718872070312 128.5004425048828 815.5735473632812 128.1320953369141 818.1121215820312 127.4055480957031 C 820.5336303710938 126.7126617431641 822.6990966796875 125.7268829345703 824.54833984375 124.4756546020508 C 828.1446533203125 122.0423278808594 830.1253051757812 118.8853225708008 830.1253051757812 115.5861053466797 L 830.1253051757812 14.91432189941406 C 830.1253051757812 11.61510467529297 828.1446533203125 8.458099365234375 824.54833984375 6.024772644042969 C 822.6990966796875 4.773544311523438 820.5336303710938 3.787765502929688 818.1121215820312 3.094879150390625 C 815.5735473632812 2.368331909179688 812.8718872070312 1.999984741210938 810.0823364257812 1.999984741210938 L 22.04296875 1.999984741210938 M 22.04296875 -1.52587890625e-05 L 810.0823364257812 -1.52587890625e-05 C 822.2562255859375 -1.52587890625e-05 832.1253051757812 6.677322387695312 832.1253051757812 14.91432189941406 L 832.1253051757812 115.5861053466797 C 832.1253051757812 123.8231048583984 822.2562255859375 130.5004425048828 810.0823364257812 130.5004425048828 L 22.04296875 130.5004425048828 C 9.86895751953125 130.5004425048828 0 123.8231048583984 0 115.5861053466797 L 0 14.91432189941406 C 0 6.677322387695312 9.86895751953125 -1.52587890625e-05 22.04296875 -1.52587890625e-05 Z"/></g></svg>