<svg xmlns="http://www.w3.org/2000/svg" width="215.286" height="55" viewBox="0 0 215.286 55"><defs><style>.a{fill:none;}.b,.c{stroke:none;}.c{fill:#314d4d;}</style></defs><g class="a"><path class="b" d="M27.5,0H187.786a27.5,27.5,0,0,1,0,55H27.5a27.5,27.5,0,0,1,0-55Z"/><path class="c" d="M 27.5 2 C 24.056640625 2 20.71733093261719 2.673942565917969 17.57485961914062 4.003089904785156 C 14.53855895996094 5.287322998046875 11.81129455566406 7.126266479492188 9.468765258789062 9.468765258789062 C 7.126235961914062 11.81129455566406 5.287322998046875 14.53858947753906 4.003082275390625 17.57485198974609 C 2.673934936523438 20.71735382080078 2 24.0566463470459 2 27.5 C 2 30.9433536529541 2.673934936523438 34.28264617919922 4.003082275390625 37.42514801025391 C 5.287322998046875 40.46141052246094 7.126235961914062 43.18870544433594 9.468765258789062 45.53123474121094 C 11.81129455566406 47.87373352050781 14.53855895996094 49.71267700195312 17.57485961914062 50.99691009521484 C 20.71733093261719 52.32605743408203 24.056640625 53 27.5 53 L 187.7857055664062 53 C 191.2290649414062 53 194.568359375 52.32605743408203 197.7108459472656 50.99691009521484 C 200.7471160888672 49.71267700195312 203.4744110107422 47.87373352050781 205.8169097900391 45.53120422363281 C 208.1594390869141 43.18870544433594 209.9983825683594 40.46141052246094 211.2826232910156 37.42514801025391 C 212.6117706298828 34.28264617919922 213.2857055664062 30.9433536529541 213.2857055664062 27.5 C 213.2857055664062 24.0566463470459 212.6117706298828 20.71735382080078 211.2826232910156 17.57485198974609 C 209.9983825683594 14.53858947753906 208.1594390869141 11.81129455566406 205.8169097900391 9.468795776367188 C 203.4744110107422 7.126266479492188 200.7471160888672 5.287322998046875 197.7108459472656 4.003089904785156 C 194.568359375 2.673942565917969 191.2290649414062 2 187.7857055664062 2 L 27.5 2 M 27.5 0 L 187.7857055664062 0 C 202.9735260009766 0 215.2857055664062 12.31217575073242 215.2857055664062 27.5 C 215.2857055664062 42.68782424926758 202.9735260009766 55 187.7857055664062 55 L 27.5 55 C 12.31214904785156 55 0 42.68782424926758 0 27.5 C 0 12.31217575073242 12.31214904785156 0 27.5 0 Z"/></g></svg>