<svg xmlns="http://www.w3.org/2000/svg" width="525.399" height="105.596" viewBox="0 0 525.399 105.596"><defs><style>.a{fill:none;}.b,.c{stroke:none;}.c{fill:#f00023;}</style></defs><g class="a"><path class="b" d="M13.918,0H511.481C519.167,0,525.4,5.4,525.4,12.068v81.46c0,6.665-6.231,12.068-13.918,12.068H13.918C6.231,105.6,0,100.193,0,93.528V12.068C0,5.4,6.231,0,13.918,0Z"/><path class="c" d="M 13.9178466796875 0.9999771118164062 C 6.794921875 0.9999771118164062 1 5.965110778808594 1 12.068115234375 L 1 93.52797698974609 C 1 99.6309814453125 6.794921875 104.5961151123047 13.9178466796875 104.5961151123047 L 511.4807739257812 104.5961151123047 C 518.6036987304688 104.5961151123047 524.3986206054688 99.6309814453125 524.3986206054688 93.52797698974609 L 524.3986206054688 12.068115234375 C 524.3986206054688 5.965110778808594 518.6036987304688 0.9999771118164062 511.4807739257812 0.9999771118164062 L 13.9178466796875 0.9999771118164062 M 13.9178466796875 -2.288818359375e-05 L 511.4807739257812 -2.288818359375e-05 C 519.1672973632812 -2.288818359375e-05 525.3986206054688 5.403114318847656 525.3986206054688 12.068115234375 L 525.3986206054688 93.52797698974609 C 525.3986206054688 100.1929779052734 519.1672973632812 105.5961151123047 511.4807739257812 105.5961151123047 L 13.9178466796875 105.5961151123047 C 6.231201171875 105.5961151123047 0 100.1929779052734 0 93.52797698974609 L 0 12.068115234375 C 0 5.403114318847656 6.231201171875 -2.288818359375e-05 13.9178466796875 -2.288818359375e-05 Z"/></g></svg>