<svg xmlns="http://www.w3.org/2000/svg" xmlns:xlink="http://www.w3.org/1999/xlink" width="20.232" height="20.231" viewBox="0 0 20.232 20.231"><defs><style>.a{fill:url(#a);}</style><linearGradient id="a" x1="0.5" x2="0.5" y2="1" gradientUnits="objectBoundingBox"><stop offset="0" stop-color="#77aba5"/><stop offset="1" stop-color="#314d4d"/></linearGradient></defs><g transform="translate(2893 2261)"><path class="a" d="M10.116,0A10.116,10.116,0,1,0,20.232,10.117,10.116,10.116,0,0,0,10.116,0Zm0,3.025A3.346,3.346,0,1,1,6.771,6.372,3.346,3.346,0,0,1,10.116,3.026Zm0,14.562A7.424,7.424,0,0,1,5.279,15.8a1.426,1.426,0,0,1-.5-1.084A3.374,3.374,0,0,1,8.17,11.348h3.893a3.37,3.37,0,0,1,3.386,3.374,1.422,1.422,0,0,1-.5,1.083A7.422,7.422,0,0,1,10.114,17.588Z" transform="translate(-2893 -2261.001)"/></g></svg>