<svg xmlns="http://www.w3.org/2000/svg" width="36.455" height="36.453" viewBox="0 0 36.455 36.453"><defs><style>.a{fill:#122025;}</style></defs><path class="a" d="M18.227,0A18.227,18.227,0,1,0,36.455,18.228,18.228,18.228,0,0,0,18.227,0Zm0,5.45A6.029,6.029,0,1,1,12.2,11.48,6.029,6.029,0,0,1,18.227,5.451Zm0,26.238a13.377,13.377,0,0,1-8.711-3.212,2.569,2.569,0,0,1-.9-1.953,6.08,6.08,0,0,1,6.11-6.078h7.015a6.071,6.071,0,0,1,6.1,6.078,2.563,2.563,0,0,1-.9,1.952A13.372,13.372,0,0,1,18.223,31.689Z" transform="translate(0 -0.001)"/></svg>