<svg xmlns="http://www.w3.org/2000/svg" width="23.617" height="23.617" viewBox="0 0 23.617 23.617"><defs><style>.a{fill:#32a2ea;}</style></defs><path class="a" d="M12.266,22.126h6.79a1.275,1.275,0,0,0,.694-.177,1.51,1.51,0,0,0,.487-.531l2.3-5.373a2.112,2.112,0,0,0,.1-.443,3.278,3.278,0,0,0,.044-.443V14.45a.69.69,0,0,0-.8-.8H15.572l.856-4.074a.844.844,0,0,0,0-.443.8.8,0,0,0-.207-.354l-.62-.649L10.849,13.27l-.236.472a1.107,1.107,0,0,0-.118.5v6.111a1.716,1.716,0,0,0,.531,1.225A1.677,1.677,0,0,0,12.266,22.126Zm3.543,5.491a11.426,11.426,0,0,1-4.576-.93,11.9,11.9,0,0,1-6.3-6.3,11.8,11.8,0,0,1,0-9.181A11.8,11.8,0,0,1,7.469,7.454,12.1,12.1,0,0,1,11.233,4.93a11.8,11.8,0,0,1,9.181,0A11.79,11.79,0,0,1,26.687,11.2a11.8,11.8,0,0,1,0,9.181,12.1,12.1,0,0,1-2.524,3.764,11.8,11.8,0,0,1-3.749,2.539A11.5,11.5,0,0,1,15.808,27.617Zm0-1.771a9.658,9.658,0,0,0,7.115-2.937,9.7,9.7,0,0,0,2.923-7.1,9.683,9.683,0,0,0-2.923-7.115,9.683,9.683,0,0,0-7.115-2.923,9.7,9.7,0,0,0-7.1,2.923,9.658,9.658,0,0,0-2.937,7.115,9.673,9.673,0,0,0,2.937,7.1A9.673,9.673,0,0,0,15.808,25.845ZM15.808,15.808Z" transform="translate(-4 -4)"/></svg>