<svg xmlns="http://www.w3.org/2000/svg" width="21.347" height="21.347" viewBox="0 0 21.347 21.347"><defs><style>.a{fill:#32a2ea;}</style></defs><path class="a" d="M11.471,20.384h6.137a1.152,1.152,0,0,0,.627-.16,1.365,1.365,0,0,0,.44-.48l2.081-4.856a1.909,1.909,0,0,0,.093-.4,2.963,2.963,0,0,0,.04-.4v-.64a.623.623,0,0,0-.72-.72H14.46l.774-3.682a.763.763,0,0,0,0-.4.727.727,0,0,0-.187-.32l-.56-.587-4.3,4.643-.213.427a1,1,0,0,0-.107.454v5.523a1.551,1.551,0,0,0,.48,1.107A1.516,1.516,0,0,0,11.471,20.384Zm3.2,4.963a10.327,10.327,0,0,1-4.136-.841,10.754,10.754,0,0,1-5.7-5.7,10.662,10.662,0,0,1,0-8.3A10.667,10.667,0,0,1,7.135,7.122a10.941,10.941,0,0,1,3.4-2.281,10.662,10.662,0,0,1,8.3,0,10.657,10.657,0,0,1,5.67,5.67,10.662,10.662,0,0,1,0,8.3,10.941,10.941,0,0,1-2.281,3.4,10.667,10.667,0,0,1-3.389,2.295A10.393,10.393,0,0,1,14.673,25.347Zm0-1.6A8.73,8.73,0,0,0,21.1,21.091a8.765,8.765,0,0,0,2.642-6.417A8.752,8.752,0,0,0,21.1,8.243,8.752,8.752,0,0,0,14.673,5.6,8.765,8.765,0,0,0,8.256,8.243,8.73,8.73,0,0,0,5.6,14.673a8.743,8.743,0,0,0,2.655,6.417A8.743,8.743,0,0,0,14.673,23.746ZM14.673,14.673Z" transform="translate(-4 -4)"/></svg>