<svg xmlns="http://www.w3.org/2000/svg" width="40.15" height="40" viewBox="0 0 40.15 40"><defs><style>.a{fill:#fff;}</style></defs><path class="a" d="M22.35,44a3.77,3.77,0,0,0,1.15-.175,2.624,2.624,0,0,0,1.05-.675L43.3,24.4a2.624,2.624,0,0,0,.675-1.05,3.77,3.77,0,0,0,.175-1.15V7a2.907,2.907,0,0,0-3-3H25.95a4.267,4.267,0,0,0-1.2.175,2.568,2.568,0,0,0-1.1.675L5,23.5a2.975,2.975,0,0,0,0,4.45l15.2,15.2a2.8,2.8,0,0,0,.975.625A3.2,3.2,0,0,0,22.35,44Zm-.1-2.9L7.05,25.9,25.95,7h15.2V22.2ZM35.9,14.8a2.581,2.581,0,0,1-1.825-4.425,2.581,2.581,0,1,1,3.65,3.65A2.5,2.5,0,0,1,35.9,14.8ZM41.15,7Z" transform="translate(-4 -4)"/></svg>