<svg xmlns="http://www.w3.org/2000/svg" width="44.369" height="38.15" viewBox="0 0 44.369 38.15"><defs><style>.a{fill:#fff;}</style></defs><path class="a" d="M9.8,42a2.293,2.293,0,0,1-1.425-.475A2.218,2.218,0,0,1,7.55,40.3L1.9,19.95a1.459,1.459,0,0,1,.275-1.35A1.542,1.542,0,0,1,3.45,18h10L22.7,4.5a2.089,2.089,0,0,1,.55-.475,1.488,1.488,0,0,1,1.4,0,2.089,2.089,0,0,1,.55.475L34.4,18H44.65a1.492,1.492,0,0,1,1.225.6,1.459,1.459,0,0,1,.275,1.35L40.45,40.3a2.218,2.218,0,0,1-.825,1.225A2.293,2.293,0,0,1,38.2,42Zm.5-3H37.7l5.05-18H5.3ZM24,33a2.988,2.988,0,1,0-2.125-.875A2.893,2.893,0,0,0,24,33ZM17.1,18H30.75L23.95,8ZM10.3,39h0Z" transform="translate(-1.841 -3.85)"/></svg>