<svg xmlns="http://www.w3.org/2000/svg" width="41.121" height="37.92" viewBox="0 0 41.121 37.92"><defs><style>.a{fill:#fff;}</style></defs><path class="a" d="M9.217,41.77A2.033,2.033,0,0,1,7.9,41.3a2.218,2.218,0,0,1-.765-1.218L1.9,19.853a1.532,1.532,0,0,1,.255-1.342,1.4,1.4,0,0,1,1.182-.6H12.6L21.173,4.5a1.981,1.981,0,0,1,.51-.472,1.3,1.3,0,0,1,1.3,0,1.981,1.981,0,0,1,.51.472l8.527,13.419h9.5a1.352,1.352,0,0,1,1.135.6,1.532,1.532,0,0,1,.255,1.342L37.624,40.08a2.218,2.218,0,0,1-.765,1.218,2.033,2.033,0,0,1-1.321.472Zm.463-2.982H35.075L39.756,20.9H5.047Zm12.7-5.964a2.593,2.593,0,0,0,1.969-.87,3.156,3.156,0,0,0,0-4.224,2.665,2.665,0,0,0-3.939,0,3.156,3.156,0,0,0,0,4.224A2.593,2.593,0,0,0,22.378,32.824Zm-6.395-14.91H28.634l-6.3-9.94Zm-6.3,20.873h0Z" transform="translate(-1.841 -3.85)"/></svg>