<svg xmlns="http://www.w3.org/2000/svg" width="150.185" height="129.135" viewBox="0 0 150.185 129.135"><defs><style>.a{fill:#fff;}</style></defs><path class="a" d="M28.782,132.985a7.761,7.761,0,0,1-4.824-1.608,7.508,7.508,0,0,1-2.793-4.147L2.041,58.347a4.939,4.939,0,0,1,.931-4.57,5.22,5.22,0,0,1,4.316-2.031H41.137L72.448,6.05A7.07,7.07,0,0,1,74.31,4.442a5.035,5.035,0,0,1,4.739,0A7.07,7.07,0,0,1,80.91,6.05l31.141,45.7h34.7a5.052,5.052,0,0,1,4.147,2.031,4.939,4.939,0,0,1,.931,4.57l-19.294,68.883a7.508,7.508,0,0,1-2.793,4.147,7.761,7.761,0,0,1-4.824,1.608Zm1.692-10.155h92.747L140.316,61.9H13.55Zm46.374-20.31a10.113,10.113,0,1,0-7.193-2.962A9.793,9.793,0,0,0,76.848,102.521ZM53.492,51.747H99.7L76.679,17.9ZM30.475,122.831h0Z" transform="translate(-1.841 -3.85)"/></svg>