<svg xmlns="http://www.w3.org/2000/svg" width="40" height="32" viewBox="0 0 40 32"><defs><style>.a{fill:#fff;}</style></defs><path class="a" d="M12,40a7.7,7.7,0,0,1-5.65-2.35A7.7,7.7,0,0,1,4,32V16a7.7,7.7,0,0,1,2.35-5.65A7.7,7.7,0,0,1,12,8H36a7.7,7.7,0,0,1,5.65,2.35A7.7,7.7,0,0,1,44,16V32a8.024,8.024,0,0,1-8,8Zm0-23.5H36a8.129,8.129,0,0,1,2.725.45A7.156,7.156,0,0,1,41,18.25V16a4.951,4.951,0,0,0-5-5H12a4.951,4.951,0,0,0-5,5v2.25a7.156,7.156,0,0,1,2.275-1.3A8.129,8.129,0,0,1,12,16.5ZM7.15,23.3,31,29.05a1.519,1.519,0,0,0,.725.025,1.191,1.191,0,0,0,.625-.325l8-6.7a5.04,5.04,0,0,0-1.8-1.85A4.809,4.809,0,0,0,36,19.5H12a4.985,4.985,0,0,0-4.85,3.8Z" transform="translate(-4 -8)"/></svg>