<svg xmlns="http://www.w3.org/2000/svg" width="37.072" height="31.807" viewBox="0 0 37.072 31.807"><defs><style>.a{fill:#fff;}</style></defs><path class="a" d="M11.414,39.807a6.907,6.907,0,0,1-5.236-2.336A7.944,7.944,0,0,1,4,31.855v-15.9a7.944,7.944,0,0,1,2.178-5.616A6.907,6.907,0,0,1,11.414,8H33.658a6.907,6.907,0,0,1,5.236,2.336,7.944,7.944,0,0,1,2.178,5.616v15.9a7.944,7.944,0,0,1-2.178,5.616,6.907,6.907,0,0,1-5.236,2.336Zm0-23.358H33.658a7.074,7.074,0,0,1,2.526.447,6.535,6.535,0,0,1,2.108,1.292V15.952a4.982,4.982,0,0,0-1.344-3.529,4.326,4.326,0,0,0-3.29-1.441H11.414a4.326,4.326,0,0,0-3.29,1.441A4.982,4.982,0,0,0,6.78,15.952v2.236A6.535,6.535,0,0,1,8.889,16.9,7.074,7.074,0,0,1,11.414,16.449Zm-4.5,6.759,22.1,5.715a1.316,1.316,0,0,0,.672.025,1.082,1.082,0,0,0,.579-.323l7.414-6.66a4.868,4.868,0,0,0-1.668-1.839,4.232,4.232,0,0,0-2.363-.7H11.414A4.3,4.3,0,0,0,8.541,20.5,4.882,4.882,0,0,0,6.919,23.208Z" transform="translate(-4 -8)"/></svg>