<svg xmlns="http://www.w3.org/2000/svg" width="30.2" height="36" viewBox="0 0 30.2 36"><defs><style>.a{fill:#fff;}</style></defs><path class="a" d="M31.35,37.5a15.731,15.731,0,0,0,1.75-7.25,15.484,15.484,0,0,0-1.75-7.325A16,16,0,0,0,26.6,17.4L22,22V6H38l-4.6,4.6a17.781,17.781,0,0,1,4.15,5.6,16.165,16.165,0,0,1,1.55,7.05,16.267,16.267,0,0,1-2.125,8.25,17.494,17.494,0,0,1-5.625,6ZM10,42l4.6-4.6a17.123,17.123,0,0,1-4.175-5.6A16.387,16.387,0,0,1,8.9,24.75a16.267,16.267,0,0,1,2.125-8.25,17.324,17.324,0,0,1,5.675-6,16.807,16.807,0,0,0-1.325,3.475A14.926,14.926,0,0,0,14.9,17.75a15.308,15.308,0,0,0,1.775,7.325A16.473,16.473,0,0,0,21.4,30.6L26,26V42Z" transform="translate(-8.9 -6)"/></svg>